<?xml version="1.0" encoding="utf-8"?>
<svg enable-background="new 0 0 48 48" height="48px" id="Layer_1" version="1.1" viewBox="0 0 48 48" width="48px" xmlns="http://www.w3.org/2000/svg">
  <path clip-rule="evenodd" d="M 36.407 38.366 L 11.593 38.366 C 10.151 38.366 8.981 37.196 8.981 35.754 L 11.593 20.082 C 12.036 17.835 13.335 17.47 14.778 17.47 L 16.51 17.47 C 17.494 12.933 20.475 9.634 24 9.634 C 27.525 9.634 30.506 12.933 31.49 17.47 L 33.222 17.47 C 34.665 17.47 35.964 17.835 36.407 20.082 L 39.019 35.754 C 39.019 37.196 37.849 38.366 36.407 38.366 Z M 24 10.94 C 21.158 10.94 18.747 13.668 17.85 17.47 L 30.15 17.47 C 29.253 13.668 26.842 10.94 24 10.94 Z M 35.101 20.082 C 34.9 19.2 34.476 18.776 33.553 18.776 L 31.707 18.776 C 31.787 19.413 31.836 20.066 31.836 20.735 C 31.836 21.096 31.544 21.388 31.183 21.388 C 30.822 21.388 30.53 21.096 30.53 20.735 C 30.53 20.064 30.485 19.409 30.399 18.776 L 17.601 18.776 C 17.516 19.409 17.47 20.064 17.47 20.735 C 17.47 21.096 17.178 21.388 16.817 21.388 C 16.456 21.388 16.164 21.096 16.164 20.735 C 16.164 20.066 16.213 19.413 16.293 18.776 L 14.446 18.776 C 13.524 18.776 13.101 19.2 12.899 20.082 L 10.287 35.754 C 10.287 36.475 10.872 37.06 11.593 37.06 L 36.407 37.06 C 37.128 37.06 37.713 36.475 37.713 35.754 L 35.101 20.082 Z" fill-rule="evenodd" style="fill: rgba(237, 237, 237, 0.74);"/>
</svg>