<?xml version="1.0" encoding="utf-8"?>
<svg data-name="Слой 1" id="Слой_1" viewBox="0 0 128 128" xmlns="http://www.w3.org/2000/svg" xmlns:bx="https://boxy-svg.com">
  <defs>
    <style>.cls-1{fill:#fff;}.cls-2{fill:#404040;}</style>
    <bx:grid x="0" y="0" width="3.2" height="3.2"/>
  </defs>
  <title/>
  <g style="" transform="matrix(0.925899, 0, 0, 0.925899, 4.742458, 4.742458)">
    <path class="cls-2" d="M 88.961 125.442 L 39.039 125.442 C 33.806 125.5 29.513 121.314 29.439 116.081 L 29.439 11.919 C 29.513 6.686 33.806 2.5 39.039 2.558 L 88.961 2.558 C 94.194 2.5 98.487 6.686 98.561 11.919 L 98.561 116.081 C 98.487 121.314 94.194 125.5 88.961 125.442 Z M 39.039 6.398 C 35.927 6.339 33.353 8.807 33.279 11.919 L 33.279 116.081 C 33.353 119.193 35.927 121.661 39.039 121.602 L 88.961 121.602 C 92.073 121.661 94.647 119.193 94.721 116.081 L 94.721 11.919 C 94.647 8.807 92.073 6.339 88.961 6.398 Z" style="fill: rgb(43, 43, 43);"/>
    <path class="cls-2" d="M 74.608 11.819 L 53.392 11.819 C 50.771 11.819 48.64 9.834 48.64 7.403 L 48 4.477 L 52.48 4.477 L 52.48 7.403 C 52.48 8.175 53.027 8.73 53.392 8.73 L 74.608 8.73 C 74.973 8.73 75.52 8.198 75.52 7.403 L 75.52 4.955 L 80 4.955 L 79.36 7.403 C 79.36 9.834 77.229 11.819 74.608 11.819 Z" style="fill: rgb(43, 43, 43);"/>
    <rect x="50.298" y="4.477" width="27.197" height="6.211" style="fill: rgb(43, 43, 43);"/>
  </g>
</svg>