<?xml version="1.0" encoding="utf-8"?>
<svg viewBox="0 0 500 500" xmlns="http://www.w3.org/2000/svg">
  <g transform="matrix(0.1, 0, 0, -0.1, 81.205231, 355.915375)" fill="#000000" stroke="none">
    <path d="M 952.288 2236.803 L 952.288 1970.438 L 1244.43 1970.438 L 1536.572 1970.438 L 1536.572 2236.803 L 1536.572 2503.168 L 1244.43 2503.168 L 952.288 2503.168 L 952.288 2236.803 Z" style="fill: rgba(255, 255, 255, 0.88);"/>
    <path d="M 1811.529 2236.803 L 1811.529 1970.438 L 2112.263 1970.438 L 2414.716 1970.438 L 2409.561 2233.366 L 2404.405 2494.575 L 2108.827 2499.73 L 1811.529 2503.168 L 1811.529 2236.803 Z" style="fill: rgba(255, 255, 255, 0.88);"/>
    <path d="M 3096.954 1293.356 C 3091.798 654.081 3090.079 631.741 3055.71 583.623 C 3005.874 516.603 2906.202 465.048 2775.597 437.553 C 2610.623 404.902 878.393 404.902 694.516 439.271 C 422.996 489.106 270.051 587.06 228.808 736.568 C 199.593 846.551 206.467 1078.546 245.992 1283.046 C 266.613 1382.717 282.08 1465.204 282.08 1468.641 C 282.08 1470.36 160.067 1470.36 12.278 1468.641 L -259.242 1463.486 L -298.766 1274.454 C -353.758 1020.118 -358.913 643.77 -312.514 466.766 C -219.716 121.352 -22.091 -83.148 316.45 -175.946 C 610.31 -258.433 790.751 -272.181 1596.719 -270.462 C 2218.809 -270.462 2390.658 -265.306 2560.787 -241.247 C 3095.235 -165.635 3401.125 1.058 3545.477 294.919 C 3636.557 480.514 3648.586 595.652 3650.304 1313.978 L 3650.304 1953.254 L 3375.348 1953.254 L 3102.109 1953.254 L 3096.954 1293.356 Z" style="fill: rgba(255, 255, 255, 0.88);"/>
  </g>
</svg>