<?xml version="1.0" encoding="utf-8"?>
<svg height="32px" version="1.1" viewBox="0 0 32 32" width="32px" xmlns="http://www.w3.org/2000/svg" xmlns:bx="https://boxy-svg.com">
  <defs>
    <bx:grid x="0" y="0" width="0.615" height="0.615"/>
  </defs>
  <title/>
  <desc/>
  <g>
    <g fill="none" fill-rule="evenodd" id="Page-1" stroke="none" stroke-width="1" style="" transform="matrix(0.906484, 0, 0, 0.906484, 0.663052, 1.861741)">
      <g fill="#929292" id="icon-111-search">
        <path d="M 19.896 18.606 C 18.463 19.628 16.709 20.228 14.816 20.228 C 9.976 20.228 6.053 16.305 6.053 11.464 C 6.053 6.624 9.976 2.7 14.816 2.7 C 19.656 2.7 23.58 6.624 23.58 11.464 C 23.58 13.884 22.599 16.075 21.013 17.661 L 27.197 23.844 C 27.48 24.128 27.473 24.583 27.189 24.867 C 26.902 25.154 26.445 25.156 26.166 24.875 L 19.896 18.606 L 19.896 18.606 Z M 14.816 19.197 C 19.087 19.197 22.549 15.734 22.549 11.464 C 22.549 7.194 19.087 3.731 14.816 3.731 C 10.546 3.731 7.084 7.194 7.084 11.464 C 7.084 15.734 10.546 19.197 14.816 19.197 L 14.816 19.197 Z" id="search" style="fill: rgba(255, 255, 255, 0.74);"/>
      </g>
    </g>
    <path style="fill: rgba(255, 255, 255, 0); stroke-width: 1.4px; stroke: rgb(255, 255, 255); stroke-opacity: 0.3;" d="M 11.666 5.309 C 17.07 3.631 22.549 8.336 21.301 13.858 C 20.052 19.377 13.297 21.476 9.14 17.635 C 5.077 13.882 6.46 7.155 11.672 5.306" transform="matrix(0.79773, 0.603015, -0.603015, 0.79773, 10.261856, -6.035566)"/>
  </g>
</svg>