<?xml version="1.0" encoding="utf-8"?>
<svg viewBox="0 0 500 500" xmlns="http://www.w3.org/2000/svg" xmlns:bx="https://boxy-svg.com">
  <defs>
    <bx:grid x="0" y="0" width="27.767" height="27.767"/>
    <filter id="drop-shadow-filter-0" x="-500%" y="-500%" width="1000%" height="1000%" bx:preset="drop-shadow 1 80 -80 0 0.5 rgba(0,0,0,0.3)">
      <feGaussianBlur in="SourceAlpha" stdDeviation="0"/>
      <feOffset dx="80" dy="-80"/>
      <feComponentTransfer result="offsetblur">
        <feFuncA id="spread-ctrl" type="linear" slope="1"/>
      </feComponentTransfer>
      <feFlood flood-color="rgba(0,0,0,0.3)"/>
      <feComposite in2="offsetblur" operator="in"/>
      <feMerge>
        <feMergeNode/>
        <feMergeNode in="SourceGraphic"/>
      </feMerge>
    </filter>
  </defs>
  <g style="" transform="matrix(1.200867, 0, 0, 1.200867, -48.784184, -48.691544)">
    <g transform="matrix(0.1, 0, 0, -0.1, 83.193329, 412.048248)" fill="#000000" stroke="none" style="filter: url(#drop-shadow-filter-0);">
      <path d="M 945.661 2813.344 L 945.661 2546.979 L 1237.803 2546.979 L 1529.945 2546.979 L 1529.945 2813.344 L 1529.945 3079.709 L 1237.803 3079.709 L 945.661 3079.709 L 945.661 2813.344 Z" style="fill: rgba(0, 0, 0, 0.88);"/>
      <path d="M 1804.902 2813.344 L 1804.902 2546.979 L 2105.636 2546.979 L 2408.089 2546.979 L 2402.934 2809.907 L 2397.778 3071.116 L 2102.2 3076.271 L 1804.902 3079.709 L 1804.902 2813.344 Z" style="paint-order: fill; fill: rgba(0, 0, 0, 0.88);"/>
      <path d="M 3090.327 1869.897 C 3085.171 1230.622 3083.452 1208.282 3049.083 1160.164 C 2999.247 1093.144 2899.575 1041.589 2768.97 1014.094 C 2603.996 981.443 871.766 981.443 687.889 1015.812 C 416.369 1065.647 263.424 1163.601 222.181 1313.109 C 192.966 1423.092 199.84 1655.087 239.365 1859.587 C 259.986 1959.258 275.453 2041.745 275.453 2045.182 C 275.453 2046.901 153.44 2046.901 5.651 2045.182 L -265.869 2040.027 L -305.393 1850.995 C -360.385 1596.659 -365.54 1220.311 -319.141 1043.307 C -226.343 697.893 -28.718 493.393 309.823 400.595 C 603.683 318.108 784.124 304.36 1590.092 306.079 C 2212.182 306.079 2384.031 311.235 2554.16 335.294 C 3088.608 410.906 3394.498 577.599 3538.85 871.46 C 3629.93 1057.055 3641.959 1172.193 3643.677 1890.519 L 3643.677 2529.795 L 3368.721 2529.795 L 3095.482 2529.795 L 3090.327 1869.897 Z" style="fill: rgba(0, 0, 0, 0.88);"/>
    </g>
  </g>
</svg>