<?xml version="1.0" standalone="no"?>
<!DOCTYPE svg PUBLIC "-//W3C//DTD SVG 20010904//EN"
 "http://www.w3.org/TR/2001/REC-SVG-20010904/DTD/svg10.dtd">
<svg version="1.0" xmlns="http://www.w3.org/2000/svg"
 width="293.000000pt" height="236.000000pt" viewBox="0 0 293.000000 236.000000"
 preserveAspectRatio="xMidYMid meet">

<g transform="translate(0.000000,236.000000) scale(0.100000,-0.100000)"
fill="#000000" stroke="none">
<path d="M1040 2055 l0 -155 170 0 170 0 0 155 0 155 -170 0 -170 0 0 -155z"/>
<path d="M1540 2055 l0 -155 175 0 176 0 -3 153 -3 152 -172 3 -173 2 0 -155z"/>
<path d="M2268 1216 c-3 -372 -4 -385 -24 -413 -29 -39 -87 -69 -163 -85 -96
-19 -1104 -19 -1211 1 -158 29 -247 86 -271 173 -17 64 -13 199 10 318 12 58
21 106 21 108 0 1 -71 1 -157 0 l-158 -3 -23 -110 c-32 -148 -35 -367 -8 -470
54 -201 169 -320 366 -374 171 -48 276 -56 745 -55 362 0 462 3 561 17 311 44
489 141 573 312 53 108 60 175 61 593 l0 372 -160 0 -159 0 -3 -384z"/>
</g>
</svg>
